# Blender v2.90.0 OBJ File: 'DUCK.blend'
# www.blender.org
mtllib Water.mtl
o Water_Plane.001
v -21.144148 0.042653 20.895893
v 21.368137 0.042653 20.895893
v -21.144148 0.042653 -21.616392
v 21.368137 0.042653 -21.616392
v 0.111996 0.042653 25.067661
v 0.111996 0.042653 -25.788158
v -25.315914 0.042653 -0.360248
v 25.539906 0.042653 -0.360248
v 0.111996 0.042653 -0.360248
v -24.786163 0.042653 11.823958
v 12.296203 0.042653 24.537914
v 25.010159 0.042653 -12.544456
v -12.072211 0.042653 -25.258408
v -12.072211 0.042653 24.537914
v 12.296203 0.042653 -25.258408
v 0.111996 0.042653 -13.074201
v -24.786163 0.042653 -12.544456
v 25.010159 0.042653 11.823958
v 0.111996 0.042653 12.353706
v -12.601957 0.042653 -0.360248
v 12.825951 0.042653 -0.360248
v 12.737660 0.042653 -12.985909
v -12.513665 0.042653 -12.985909
v -12.513667 0.042653 12.265414
v 12.737659 0.042653 12.265414
vt 0.500000 0.500000
vt 0.750000 0.500000
vt 0.750000 0.750000
vt 0.500000 0.750000
vt 1.000000 0.500000
vt 1.000000 0.750000
vt 1.000000 1.000000
vt 0.750000 1.000000
vt 0.500000 1.000000
vt 0.000000 0.500000
vt 0.250000 0.500000
vt 0.250000 0.750000
vt 0.000000 0.750000
vt 0.250000 1.000000
vt 0.000000 1.000000
vt 0.000000 0.000000
vt 0.250000 0.000000
vt 0.250000 0.250000
vt 0.000000 0.250000
vt 0.500000 0.000000
vt 0.500000 0.250000
vt 0.750000 0.000000
vt 0.750000 0.250000
vt 1.000000 0.000000
vt 1.000000 0.250000
vn 0.0000 1.0000 0.0000
usemtl None
s 1
f 9/1/1 21/2/1 22/3/1 16/4/1
f 21/2/1 8/5/1 12/6/1 22/3/1
f 22/3/1 12/6/1 4/7/1 15/8/1
f 16/4/1 22/3/1 15/8/1 6/9/1
f 7/10/1 20/11/1 23/12/1 17/13/1
f 20/11/1 9/1/1 16/4/1 23/12/1
f 23/12/1 16/4/1 6/9/1 13/14/1
f 17/13/1 23/12/1 13/14/1 3/15/1
f 1/16/1 14/17/1 24/18/1 10/19/1
f 14/17/1 5/20/1 19/21/1 24/18/1
f 24/18/1 19/21/1 9/1/1 20/11/1
f 10/19/1 24/18/1 20/11/1 7/10/1
f 5/20/1 11/22/1 25/23/1 19/21/1
f 11/22/1 2/24/1 18/25/1 25/23/1
f 25/23/1 18/25/1 8/5/1 21/2/1
f 19/21/1 25/23/1 21/2/1 9/1/1
