# Blender v2.90.0 OBJ File: 'DUCK.blend'
# www.blender.org
mtllib Grass.mtl
o Grass
v -23.704733 -2.509903 41.971138
v 17.502893 -2.509903 27.569000
v -20.278616 -2.509903 -31.758148
v 30.561859 -2.509903 -45.694130
v -1.745260 -2.509903 44.579323
v 9.887636 -2.509903 -50.179184
v -37.306236 -2.509903 13.379707
v 26.018332 -2.509903 -14.628901
v -142.093582 4.740139 196.084137
v 132.793930 4.740139 138.251190
v -140.350494 4.740139 -152.767914
v 164.536484 4.740139 -196.967896
v -2.178397 4.740139 229.772339
v 24.880430 4.740139 -223.370422
v -207.891632 4.740139 19.243057
v 181.270340 4.740139 -32.453117
v -28.979214 2.960576 -37.490944
v 10.146935 2.960576 -55.254181
v 27.526562 2.960576 29.797012
v -0.230781 2.960576 51.952065
v 35.020931 2.960576 -16.287447
v -28.980877 2.960576 47.963242
v 39.620502 2.960576 -51.385513
v -46.365631 2.960576 8.635750
v -32.510635 -2.509903 30.297256
v 8.911503 -2.509903 37.187561
v 30.438612 -2.509903 -36.112751
v -5.052839 -2.509903 -45.875187
v -13.005571 -2.509903 47.083984
v 22.907883 -2.509903 -49.614967
v 184.983871 4.740139 -128.629074
v -31.373793 -2.509903 -9.288676
v 22.264927 -2.509903 11.431341
v 72.835159 4.740139 191.925156
v -188.760086 4.740139 116.401810
v -65.227348 4.740139 -202.085556
v -77.733963 4.740139 236.672150
v 107.901642 4.740139 -223.797485
v -189.724503 4.740139 -75.532333
v 167.436920 4.740139 63.948391
v -34.865364 4.361517 -42.384491
v 10.415565 0.533252 -52.876247
v 35.360050 4.361517 32.809471
v -0.931201 0.533252 47.845718
v 41.112270 4.361517 -12.546843
v -26.050591 0.533252 44.565887
v 46.580357 4.361517 -57.903305
v -41.006672 0.533252 11.584019
v -23.990477 0.533252 -34.659580
v 9.575788 4.361517 -58.074448
v 21.729298 0.533252 28.528875
v 0.078731 4.361517 57.534332
v 30.207392 0.533252 -16.443705
v -33.547924 4.361517 52.625584
v 34.459423 0.533252 -47.692333
v -54.191097 4.361517 4.408834
v 27.947746 2.960576 -54.384563
v -40.296883 2.960576 -16.185816
v -40.338226 2.960576 30.699112
v 40.007656 2.960576 -37.818638
v -15.393664 2.960576 56.277691
v -10.891649 2.960576 -51.424335
v 14.715587 2.960576 41.156189
v 34.168839 2.960576 11.507289
v 42.253838 4.361517 15.659167
v 19.111984 4.361517 44.131672
v -15.855567 4.361517 -55.273602
v -18.538036 4.361517 63.940128
v 47.276066 4.361517 -39.641312
v -46.617451 4.361517 30.452316
v -46.997772 4.361517 -21.119045
v 31.296791 4.361517 -58.951149
v 25.236795 0.533252 -51.589985
v -35.276627 0.533252 -12.108768
v -35.917877 0.533252 30.691227
v 34.760853 0.533252 -37.172375
v -13.931311 0.533252 50.973396
v -7.450650 0.533252 -48.897278
v 11.566503 0.533252 39.183350
v 27.548531 0.533252 10.989164
vt 0.000000 0.000000
vt 0.000000 0.000000
vt 0.000000 0.000000
vt 0.000000 0.000000
vt 0.000000 0.000000
vt 0.000000 0.000000
vt 0.000000 0.000000
vt 0.000000 0.000000
vt 0.000000 0.000000
vt 0.000000 0.000000
vt 0.000000 0.000000
vt 0.000000 0.000000
vt 0.000000 0.000000
vt 0.000000 0.000000
vt 0.000000 0.000000
vt 0.000000 0.000000
vt 0.000000 0.000000
vt 0.000000 0.000000
vt 0.000000 0.000000
vt 0.000000 0.000000
vt 0.000000 0.000000
vt 0.000000 0.000000
vt 0.000000 0.000000
vt 0.000000 0.000000
vt 0.000000 0.000000
vt 0.000000 0.000000
vt 0.000000 0.000000
vt 0.000000 0.000000
vt 0.000000 0.000000
vt 0.000000 0.000000
vt 0.000000 0.000000
vt 0.000000 0.000000
vt 0.000000 0.000000
vt 0.000000 0.000000
vt 0.000000 0.000000
vt 0.000000 0.000000
vt 0.000000 0.000000
vt 0.000000 0.000000
vt 0.000000 0.000000
vt 0.000000 0.000000
vt 0.000000 0.000000
vt 0.000000 0.000000
vt 0.000000 0.000000
vt 0.000000 0.000000
vt 0.000000 0.000000
vt 0.000000 0.000000
vt 0.000000 0.000000
vt 0.000000 0.000000
vt 0.000000 0.000000
vt 0.000000 0.000000
vt 0.000000 0.000000
vt 0.000000 0.000000
vt 0.000000 0.000000
vt 0.000000 0.000000
vt 0.000000 0.000000
vt 0.000000 0.000000
vt 0.000000 0.000000
vt 0.000000 0.000000
vt 0.000000 0.000000
vt 0.000000 0.000000
vt 0.000000 0.000000
vt 0.000000 0.000000
vt 0.000000 0.000000
vt 0.000000 0.000000
vt 0.000000 0.000000
vt 0.000000 0.000000
vt 0.000000 0.000000
vt 0.000000 0.000000
vt 0.000000 0.000000
vt 0.000000 0.000000
vt 0.000000 0.000000
vt 0.000000 0.000000
vt 0.000000 0.000000
vt 0.000000 0.000000
vt 0.000000 0.000000
vt 0.000000 0.000000
vt 0.000000 0.000000
vt 0.000000 0.000000
vt 0.000000 0.000000
vt 0.000000 0.000000
vn -0.2308 0.9595 -0.1612
vn -0.0604 0.9972 -0.0429
vn -0.0739 0.9971 -0.0152
vn -0.2645 0.9633 -0.0441
vn -0.1080 0.9941 -0.0089
vn -0.3143 0.9481 -0.0475
vn -0.0027 1.0000 -0.0007
vn -0.0028 1.0000 -0.0002
vn -0.0021 1.0000 -0.0016
vn -0.1637 0.9281 -0.3344
vn -0.0477 0.9935 -0.1035
vn -0.0746 0.9922 -0.0996
vn -0.2431 0.9217 -0.3023
vn -0.0014 1.0000 -0.0021
vn -0.0006 1.0000 -0.0022
vn 0.0339 0.8616 0.5065
vn 0.0135 0.9841 0.1768
vn 0.0429 0.9945 0.0957
vn 0.1467 0.9203 0.3627
vn 0.0599 0.9967 0.0540
vn 0.2150 0.9596 0.1816
vn 0.0009 1.0000 0.0022
vn 0.0017 1.0000 0.0017
vn 0.0002 1.0000 0.0023
vn 0.2299 0.9454 -0.2310
vn 0.0678 0.9957 -0.0629
vn 0.0131 0.9978 -0.0645
vn 0.0303 0.9586 -0.2833
vn 0.0005 1.0000 -0.0020
vn 0.0015 1.0000 -0.0015
vn -0.0905 0.9958 -0.0062
vn -0.3043 0.9521 -0.0300
vn -0.0316 0.9990 0.0305
vn -0.1724 0.9738 0.1478
vn -0.0025 1.0000 0.0003
vn -0.0015 1.0000 0.0014
vn 0.2862 0.9581 -0.0047
vn 0.0753 0.9971 0.0045
vn 0.0979 0.9944 -0.0387
vn 0.3228 0.9357 -0.1424
vn 0.0021 1.0000 -0.0009
vn 0.0024 1.0000 -0.0000
vn 0.0741 0.9967 0.0316
vn 0.2476 0.9639 0.0973
vn 0.0023 1.0000 0.0009
vn -0.0112 0.9918 0.1271
vn -0.0627 0.9058 0.4189
vn -0.0004 1.0000 0.0021
vn -0.4699 0.8102 0.3504
vn -0.3645 0.8913 0.2696
vn -0.1439 0.7491 0.6467
vn -0.1452 0.6650 0.7326
vn 0.0446 0.7100 0.7027
vn 0.0757 0.6730 0.7357
vn 0.4411 0.8307 0.3396
vn 0.3691 0.8786 0.3028
vn 0.4354 0.8858 0.1603
vn 0.5326 0.8257 0.1858
vn 0.5143 0.8574 -0.0169
vn 0.6312 0.7738 -0.0531
vn 0.5295 0.8099 -0.2523
vn 0.6048 0.7323 -0.3129
vn 0.3747 0.8307 -0.4118
vn 0.4253 0.7558 -0.4979
vn -0.5700 0.8169 -0.0878
vn -0.5045 0.8593 -0.0839
vn -0.5113 0.8579 -0.0498
vn -0.6018 0.7952 -0.0734
vn 0.0582 0.8567 -0.5125
vn 0.0605 0.7783 -0.6250
vn -0.2501 0.8079 -0.5335
vn -0.2837 0.7407 -0.6090
vn 0.2398 0.8008 0.5488
vn 0.2781 0.7654 0.5803
vn -0.3864 0.8005 -0.4581
vn -0.4352 0.7389 -0.5145
vn -0.4210 0.8656 -0.2711
vn -0.5046 0.7994 -0.3260
vn -0.4505 0.8881 -0.0912
vn -0.5365 0.8348 -0.1235
usemtl None
s 1
f 19/1/1 43/2/2 65/3/3 64/4/4
f 64/4/4 65/3/3 45/5/5 21/6/6
f 65/3/3 40/7/7 16/8/8 45/5/5
f 43/2/2 10/9/9 40/7/7 65/3/3
f 20/10/10 52/11/11 66/12/12 63/13/13
f 63/13/13 66/12/12 43/2/2 19/1/1
f 66/12/12 34/14/14 10/9/9 43/2/2
f 52/11/11 13/15/15 34/14/14 66/12/12
f 18/16/16 50/17/17 67/18/18 62/19/19
f 62/19/19 67/18/18 41/20/20 17/21/21
f 67/18/18 36/22/22 11/23/23 41/20/20
f 50/17/17 14/24/24 36/22/22 67/18/18
f 22/25/25 54/26/26 68/27/27 61/28/28
f 61/28/28 68/27/27 52/11/11 20/10/10
f 68/27/27 37/29/29 13/15/15 52/11/11
f 54/26/26 9/30/30 37/29/29 68/27/27
f 21/6/6 45/5/5 69/31/31 60/32/32
f 60/32/32 69/31/31 47/33/33 23/34/34
f 69/31/31 31/35/35 12/36/36 47/33/33
f 45/5/5 16/8/8 31/35/35 69/31/31
f 24/37/37 56/38/38 70/39/39 59/40/40
f 59/40/40 70/39/39 54/26/26 22/25/25
f 70/39/39 35/41/41 9/30/30 54/26/26
f 56/38/38 15/42/42 35/41/41 70/39/39
f 17/21/21 41/20/20 71/43/43 58/44/44
f 58/44/44 71/43/43 56/38/38 24/37/37
f 71/43/43 39/45/45 15/42/42 56/38/38
f 41/20/20 11/23/23 39/45/45 71/43/43
f 23/34/34 47/33/33 72/46/46 57/47/47
f 57/47/47 72/46/46 50/17/17 18/16/16
f 72/46/46 38/48/48 14/24/24 50/17/17
f 47/33/33 12/36/36 38/48/48 72/46/46
f 4/49/49 55/50/50 73/51/51 30/52/52
f 30/52/52 73/51/51 42/53/53 6/54/54
f 73/51/51 57/47/47 18/16/16 42/53/53
f 55/50/50 23/34/34 57/47/47 73/51/51
f 3/55/55 49/56/56 74/57/57 32/58/58
f 32/58/58 74/57/57 48/59/59 7/60/60
f 74/57/57 58/44/44 24/37/37 48/59/59
f 49/56/56 17/21/21 58/44/44 74/57/57
f 7/60/60 48/59/59 75/61/61 25/62/62
f 25/62/62 75/61/61 46/63/63 1/64/64
f 75/61/61 59/40/40 22/25/25 46/63/63
f 48/59/59 24/37/37 59/40/40 75/61/61
f 8/65/65 53/66/66 76/67/67 27/68/68
f 27/68/68 76/67/67 55/50/50 4/49/49
f 76/67/67 60/32/32 23/34/34 55/50/50
f 53/66/66 21/6/6 60/32/32 76/67/67
f 1/64/64 46/63/63 77/69/69 29/70/70
f 29/70/70 77/69/69 44/71/71 5/72/72
f 77/69/69 61/28/28 20/10/10 44/71/71
f 46/63/63 22/25/25 61/28/28 77/69/69
f 6/54/54 42/53/53 78/73/73 28/74/74
f 28/74/74 78/73/73 49/56/56 3/55/55
f 78/73/73 62/19/19 17/21/21 49/56/56
f 42/53/53 18/16/16 62/19/19 78/73/73
f 5/72/72 44/71/71 79/75/75 26/76/76
f 26/76/76 79/75/75 51/77/77 2/78/78
f 79/75/75 63/13/13 19/1/1 51/77/77
f 44/71/71 20/10/10 63/13/13 79/75/75
f 2/78/78 51/77/77 80/79/79 33/80/80
f 33/80/80 80/79/79 53/66/66 8/65/65
f 80/79/79 64/4/4 21/6/6 53/66/66
f 51/77/77 19/1/1 64/4/4 80/79/79
