# Blender v2.90.0 OBJ File: 'DUCK.blend'
# www.blender.org
mtllib Grass.mtl
o Grass
v -17.977196 -2.509903 17.728939
v 18.201183 -2.509903 17.728939
v -17.977196 -2.509903 -18.449440
v 18.201183 -2.509903 -18.449440
v 0.111995 -2.509903 21.346777
v 0.111995 -2.509903 -22.067278
v -21.595034 -2.509903 -0.360250
v 21.819021 -2.509903 -0.360250
v -40.048225 5.146627 39.799973
v 40.272209 5.146627 39.799973
v -40.048225 5.146627 -40.520470
v 40.272209 5.146627 -40.520470
v 0.111994 5.146627 47.832016
v 0.111994 5.146627 -48.552513
v -48.080269 5.146627 -0.360250
v 48.304256 5.146627 -0.360250
v -25.801622 2.960576 -26.273869
v 0.111995 2.960576 -31.456589
v 26.025612 2.960576 25.553368
v 0.111995 2.960576 30.736097
v 31.208338 2.960576 -0.360249
v -25.801620 2.960576 25.553370
v 26.025612 2.960576 -26.273867
v -30.984344 2.960576 -0.360249
v -21.142803 -2.509903 10.041035
v 10.513279 -2.509903 20.894547
v 21.366791 -2.509903 -10.761534
v -10.289289 -2.509903 -21.615047
v -10.289289 -2.509903 20.894547
v 10.513279 -2.509903 -21.615047
v 47.300247 5.146627 -23.452375
v -21.142803 -2.509903 -10.761534
v 21.366791 -2.509903 10.041035
v 23.204117 5.146627 46.828007
v -47.076260 5.146627 22.731874
v -22.980131 5.146627 -47.548504
v -22.980131 5.146627 46.828007
v 23.204117 5.146627 -47.548504
v -47.076260 5.146627 -23.452375
v 47.300247 5.146627 22.731874
v -32.322842 4.361517 -32.795090
v 0.111995 0.533252 -26.039438
v 32.546833 4.361517 32.074593
v 0.111995 0.533252 25.318939
v 39.033802 4.361517 -0.360249
v -21.287329 0.533252 21.039076
v 32.546833 4.361517 -32.795090
v -25.567194 0.533252 -0.360250
v -21.287329 0.533252 -21.759575
v 0.111994 4.361517 -39.282055
v 21.511320 0.533252 21.039076
v 0.111994 4.361517 38.561558
v 25.791183 0.533252 -0.360249
v -32.322842 4.361517 32.074593
v 21.511320 0.533252 -21.759575
v -38.809811 4.361517 -0.360249
v 15.012326 2.960576 -30.808750
v -30.336506 2.960576 -15.260580
v -30.336504 2.960576 14.540083
v 30.560495 2.960576 -15.260580
v -14.788336 2.960576 30.088253
v -14.788336 2.960576 -30.808748
v 15.012326 2.960576 30.088253
v 30.560495 2.960576 14.540083
v 38.222931 4.361517 18.289782
v 18.762024 4.361517 37.750687
v -18.538036 4.361517 -38.471184
v -18.538036 4.361517 37.750690
v 38.222931 4.361517 -19.010281
v -37.998940 4.361517 18.289782
v -37.998940 4.361517 -19.010283
v 18.762024 4.361517 -38.471184
v 12.416606 0.533252 -25.504456
v -25.032211 0.533252 -12.664860
v -25.032211 0.533252 11.944363
v 25.256199 0.533252 -12.664862
v -12.192616 0.533252 24.783958
v -12.192616 0.533252 -25.504456
v 12.416607 0.533252 24.783957
v 25.256199 0.533252 11.944363
vt 0.000000 0.000000
vt 0.000000 0.000000
vt 0.000000 0.000000
vt 0.000000 0.000000
vt 0.000000 0.000000
vt 0.000000 0.000000
vt 0.000000 0.000000
vt 0.000000 0.000000
vt 0.000000 0.000000
vt 0.000000 0.000000
vt 0.000000 0.000000
vt 0.000000 0.000000
vt 0.000000 0.000000
vt 0.000000 0.000000
vt 0.000000 0.000000
vt 0.000000 0.000000
vt 0.000000 0.000000
vt 0.000000 0.000000
vt 0.000000 0.000000
vt 0.000000 0.000000
vt 0.000000 0.000000
vt 0.000000 0.000000
vt 0.000000 0.000000
vt 0.000000 0.000000
vt 0.000000 0.000000
vt 0.000000 0.000000
vt 0.000000 0.000000
vt 0.000000 0.000000
vt 0.000000 0.000000
vt 0.000000 0.000000
vt 0.000000 0.000000
vt 0.000000 0.000000
vt 0.000000 0.000000
vt 0.000000 0.000000
vt 0.000000 0.000000
vt 0.000000 0.000000
vt 0.000000 0.000000
vt 0.000000 0.000000
vt 0.000000 0.000000
vt 0.000000 0.000000
vt 0.000000 0.000000
vt 0.000000 0.000000
vt 0.000000 0.000000
vt 0.000000 0.000000
vt 0.000000 0.000000
vt 0.000000 0.000000
vt 0.000000 0.000000
vt 0.000000 0.000000
vt 0.000000 0.000000
vt 0.000000 0.000000
vt 0.000000 0.000000
vt 0.000000 0.000000
vt 0.000000 0.000000
vt 0.000000 0.000000
vt 0.000000 0.000000
vt 0.000000 0.000000
vt 0.000000 0.000000
vt 0.000000 0.000000
vt 0.000000 0.000000
vt 0.000000 0.000000
vt 0.000000 0.000000
vt 0.000000 0.000000
vt 0.000000 0.000000
vt 0.000000 0.000000
vt 0.000000 0.000000
vt 0.000000 0.000000
vt 0.000000 0.000000
vt 0.000000 0.000000
vt 0.000000 0.000000
vt 0.000000 0.000000
vt 0.000000 0.000000
vt 0.000000 0.000000
vt 0.000000 0.000000
vt 0.000000 0.000000
vt 0.000000 0.000000
vt 0.000000 0.000000
vt 0.000000 0.000000
vt 0.000000 0.000000
vt 0.000000 0.000000
vt 0.000000 0.000000
vn -0.1619 0.9734 -0.1619
vn -0.0715 0.9948 -0.0715
vn -0.1156 0.9930 -0.0258
vn -0.2615 0.9634 -0.0585
vn -0.1292 0.9916 0.0000
vn -0.2917 0.9565 0.0000
vn -0.0770 0.9968 -0.0188
vn -0.0844 0.9964 0.0000
vn -0.0507 0.9974 -0.0507
vn 0.0000 0.9565 -0.2917
vn 0.0000 0.9916 -0.1292
vn -0.0258 0.9930 -0.1156
vn -0.0585 0.9634 -0.2615
vn -0.0188 0.9968 -0.0770
vn 0.0000 0.9964 -0.0844
vn 0.0000 0.9565 0.2917
vn 0.0000 0.9916 0.1292
vn 0.0258 0.9930 0.1156
vn 0.0585 0.9634 0.2615
vn 0.0715 0.9948 0.0715
vn 0.1619 0.9734 0.1619
vn 0.0188 0.9968 0.0770
vn 0.0507 0.9974 0.0507
vn 0.0000 0.9964 0.0844
vn 0.1619 0.9734 -0.1619
vn 0.0715 0.9948 -0.0715
vn 0.0258 0.9930 -0.1156
vn 0.0585 0.9634 -0.2615
vn 0.0188 0.9968 -0.0770
vn 0.0507 0.9974 -0.0507
vn -0.1156 0.9930 0.0258
vn -0.2615 0.9634 0.0585
vn -0.0715 0.9948 0.0715
vn -0.1619 0.9734 0.1619
vn -0.0770 0.9968 0.0188
vn -0.0507 0.9974 0.0507
vn 0.2917 0.9565 0.0000
vn 0.1292 0.9916 0.0000
vn 0.1156 0.9930 -0.0258
vn 0.2615 0.9634 -0.0585
vn 0.0770 0.9968 -0.0188
vn 0.0844 0.9964 0.0000
vn 0.1156 0.9930 0.0258
vn 0.2615 0.9634 0.0585
vn 0.0770 0.9968 0.0188
vn -0.0258 0.9930 0.1156
vn -0.0585 0.9634 0.2615
vn -0.0188 0.9968 0.0770
vn -0.3854 0.8384 0.3854
vn -0.3048 0.9023 0.3048
vn -0.1026 0.8763 0.4706
vn -0.1126 0.8086 0.5775
vn 0.0000 0.8604 0.5096
vn 0.0000 0.7938 0.6081
vn 0.3854 0.8384 0.3854
vn 0.3048 0.9023 0.3048
vn 0.4706 0.8763 0.1026
vn 0.5775 0.8086 0.1126
vn 0.5096 0.8604 0.0000
vn 0.6081 0.7938 0.0000
vn 0.4706 0.8763 -0.1026
vn 0.5775 0.8086 -0.1126
vn 0.3048 0.9023 -0.3048
vn 0.3854 0.8384 -0.3854
vn -0.6081 0.7938 0.0000
vn -0.5096 0.8604 0.0000
vn -0.4706 0.8763 0.1026
vn -0.5775 0.8086 0.1126
vn 0.1026 0.8763 -0.4706
vn 0.1126 0.8086 -0.5775
vn 0.0000 0.8604 -0.5096
vn 0.0000 0.7938 -0.6081
vn 0.1026 0.8763 0.4706
vn 0.1126 0.8086 0.5775
vn -0.1026 0.8763 -0.4706
vn -0.1126 0.8086 -0.5775
vn -0.3048 0.9023 -0.3048
vn -0.3854 0.8384 -0.3854
vn -0.4706 0.8763 -0.1026
vn -0.5775 0.8086 -0.1126
usemtl None
s 1
f 19/1/1 43/2/2 65/3/3 64/4/4
f 64/4/4 65/3/3 45/5/5 21/6/6
f 65/3/3 40/7/7 16/8/8 45/5/5
f 43/2/2 10/9/9 40/7/7 65/3/3
f 20/10/10 52/11/11 66/12/12 63/13/13
f 63/13/13 66/12/12 43/2/2 19/1/1
f 66/12/12 34/14/14 10/9/9 43/2/2
f 52/11/11 13/15/15 34/14/14 66/12/12
f 18/16/16 50/17/17 67/18/18 62/19/19
f 62/19/19 67/18/18 41/20/20 17/21/21
f 67/18/18 36/22/22 11/23/23 41/20/20
f 50/17/17 14/24/24 36/22/22 67/18/18
f 22/25/25 54/26/26 68/27/27 61/28/28
f 61/28/28 68/27/27 52/11/11 20/10/10
f 68/27/27 37/29/29 13/15/15 52/11/11
f 54/26/26 9/30/30 37/29/29 68/27/27
f 21/6/6 45/5/5 69/31/31 60/32/32
f 60/32/32 69/31/31 47/33/33 23/34/34
f 69/31/31 31/35/35 12/36/36 47/33/33
f 45/5/5 16/8/8 31/35/35 69/31/31
f 24/37/37 56/38/38 70/39/39 59/40/40
f 59/40/40 70/39/39 54/26/26 22/25/25
f 70/39/39 35/41/41 9/30/30 54/26/26
f 56/38/38 15/42/42 35/41/41 70/39/39
f 17/21/21 41/20/20 71/43/43 58/44/44
f 58/44/44 71/43/43 56/38/38 24/37/37
f 71/43/43 39/45/45 15/42/42 56/38/38
f 41/20/20 11/23/23 39/45/45 71/43/43
f 23/34/34 47/33/33 72/46/46 57/47/47
f 57/47/47 72/46/46 50/17/17 18/16/16
f 72/46/46 38/48/48 14/24/24 50/17/17
f 47/33/33 12/36/36 38/48/48 72/46/46
f 4/49/49 55/50/50 73/51/51 30/52/52
f 30/52/52 73/51/51 42/53/53 6/54/54
f 73/51/51 57/47/47 18/16/16 42/53/53
f 55/50/50 23/34/34 57/47/47 73/51/51
f 3/55/55 49/56/56 74/57/57 32/58/58
f 32/58/58 74/57/57 48/59/59 7/60/60
f 74/57/57 58/44/44 24/37/37 48/59/59
f 49/56/56 17/21/21 58/44/44 74/57/57
f 7/60/60 48/59/59 75/61/61 25/62/62
f 25/62/62 75/61/61 46/63/63 1/64/64
f 75/61/61 59/40/40 22/25/25 46/63/63
f 48/59/59 24/37/37 59/40/40 75/61/61
f 8/65/65 53/66/66 76/67/67 27/68/68
f 27/68/68 76/67/67 55/50/50 4/49/49
f 76/67/67 60/32/32 23/34/34 55/50/50
f 53/66/66 21/6/6 60/32/32 76/67/67
f 1/64/64 46/63/63 77/69/69 29/70/70
f 29/70/70 77/69/69 44/71/71 5/72/72
f 77/69/69 61/28/28 20/10/10 44/71/71
f 46/63/63 22/25/25 61/28/28 77/69/69
f 6/54/54 42/53/53 78/73/73 28/74/74
f 28/74/74 78/73/73 49/56/56 3/55/55
f 78/73/73 62/19/19 17/21/21 49/56/56
f 42/53/53 18/16/16 62/19/19 78/73/73
f 5/72/72 44/71/71 79/75/75 26/76/76
f 26/76/76 79/75/75 51/77/77 2/78/78
f 79/75/75 63/13/13 19/1/1 51/77/77
f 44/71/71 20/10/10 63/13/13 79/75/75
f 2/78/78 51/77/77 80/79/79 33/80/80
f 33/80/80 80/79/79 53/66/66 8/65/65
f 80/79/79 64/4/4 21/6/6 53/66/66
f 51/77/77 19/1/1 64/4/4 80/79/79
